<?xml version="1.0" encoding="UTF-8"?> <svg xmlns="http://www.w3.org/2000/svg" width="34" height="34" viewBox="0 0 34 34" fill="none"> <path d="M9.05 26C8.88333 26 8.70833 25.9957 8.525 25.987C8.34167 25.9783 8.16667 25.966 8 25.95V20.1L13 19.1L15.9 22C17.1667 21.2333 18.3293 20.325 19.388 19.275C20.4467 18.225 21.3257 17.1 22.025 15.9L19.175 13.025L20.1 8H25.95C25.9833 8.16667 26 8.34167 26 8.525V9.05C26 11.2 25.521 13.296 24.563 15.338C23.605 17.38 22.3383 19.1923 20.763 20.775C19.1877 22.3583 17.3793 23.625 15.338 24.575C13.2967 25.525 11.2007 26 9.05 26Z" fill="white"></path> </svg> 